<mxfile host="65bd71144e">
    <diagram id="K9BGoaaTGp3cuV_yfpaS" name="第 1 页">
        <mxGraphModel dx="801" dy="525" grid="1" gridSize="10" guides="1" tooltips="1" connect="1" arrows="1" fold="1" page="1" pageScale="1" pageWidth="827" pageHeight="1169" background="#F1FAEE" math="0" shadow="0">
            <root>
                <mxCell id="0"/>
                <mxCell id="1" parent="0"/>
                <mxCell id="5" value="" style="rounded=0;whiteSpace=wrap;html=1;fillColor=none;strokeColor=#457B9D;fontColor=#1D3557;" parent="1" vertex="1">
                    <mxGeometry x="220" y="130" width="670" height="390" as="geometry"/>
                </mxCell>
                <mxCell id="6" value="" style="rounded=0;whiteSpace=wrap;html=1;fillColor=none;strokeColor=#457B9D;fontColor=#1D3557;" parent="1" vertex="1">
                    <mxGeometry x="290" y="180" width="550" height="300" as="geometry"/>
                </mxCell>
                <mxCell id="14" style="edgeStyle=orthogonalEdgeStyle;rounded=0;orthogonalLoop=1;jettySize=auto;html=1;entryX=0.5;entryY=0;entryDx=0;entryDy=0;fontSize=15;fontColor=#1D3557;strokeColor=#457B9D;labelBackgroundColor=#F1FAEE;" parent="1" source="7" target="13" edge="1">
                    <mxGeometry relative="1" as="geometry"/>
                </mxCell>
                <mxCell id="19" style="edgeStyle=orthogonalEdgeStyle;rounded=0;orthogonalLoop=1;jettySize=auto;html=1;entryX=0.5;entryY=0;entryDx=0;entryDy=0;fontSize=15;fontColor=#1D3557;strokeColor=#457B9D;labelBackgroundColor=#F1FAEE;" parent="1" source="7" target="16" edge="1">
                    <mxGeometry relative="1" as="geometry"/>
                </mxCell>
                <mxCell id="20" style="edgeStyle=orthogonalEdgeStyle;rounded=0;orthogonalLoop=1;jettySize=auto;html=1;entryX=0.5;entryY=0;entryDx=0;entryDy=0;fontSize=15;fontColor=#1D3557;strokeColor=#457B9D;labelBackgroundColor=#F1FAEE;" parent="1" source="7" target="17" edge="1">
                    <mxGeometry relative="1" as="geometry"/>
                </mxCell>
                <mxCell id="7" value="&lt;span style=&quot;font-size: medium ; text-align: left ; background-color: rgb(255 , 255 , 255)&quot;&gt;DocumentsWriter&lt;/span&gt;" style="rounded=0;whiteSpace=wrap;html=1;fontColor=#1D3557;strokeColor=#457B9D;shadow=0;fillColor=none;" parent="1" vertex="1">
                    <mxGeometry x="440" y="210" width="170" height="60" as="geometry"/>
                </mxCell>
                <mxCell id="8" value="IndexWriter" style="text;html=1;strokeColor=none;fillColor=none;align=center;verticalAlign=middle;whiteSpace=wrap;rounded=0;fontColor=#1D3557;fontSize=15;" parent="1" vertex="1">
                    <mxGeometry x="480" y="150" width="130" height="20" as="geometry"/>
                </mxCell>
                <mxCell id="10" style="edgeStyle=orthogonalEdgeStyle;rounded=0;orthogonalLoop=1;jettySize=auto;html=1;exitX=0.5;exitY=1;exitDx=0;exitDy=0;fontColor=#1D3557;strokeColor=#457B9D;labelBackgroundColor=#F1FAEE;" parent="1" source="8" target="8" edge="1">
                    <mxGeometry relative="1" as="geometry"/>
                </mxCell>
                <mxCell id="26" value="flush" style="edgeStyle=orthogonalEdgeStyle;rounded=0;orthogonalLoop=1;jettySize=auto;html=1;entryX=0.5;entryY=0;entryDx=0;entryDy=0;fontSize=12;fontColor=#1D3557;strokeColor=#457B9D;labelBackgroundColor=none;" parent="1" source="13" target="23" edge="1">
                    <mxGeometry x="0.6" y="20" relative="1" as="geometry">
                        <mxPoint as="offset"/>
                    </mxGeometry>
                </mxCell>
                <mxCell id="13" value="&lt;span style=&quot;color: rgb(18 , 18 , 18) ; text-align: left ; background-color: rgb(255 , 255 , 255)&quot;&gt;&lt;font style=&quot;font-size: 12px&quot;&gt;WriterPerThread&lt;/font&gt;&lt;/span&gt;" style="rounded=0;whiteSpace=wrap;html=1;shadow=0;fontSize=11;fontColor=#1D3557;strokeColor=#457B9D;fillColor=none;" parent="1" vertex="1">
                    <mxGeometry x="340" y="320" width="100" height="50" as="geometry"/>
                </mxCell>
                <mxCell id="27" style="edgeStyle=orthogonalEdgeStyle;rounded=0;orthogonalLoop=1;jettySize=auto;html=1;entryX=0.5;entryY=0;entryDx=0;entryDy=0;fontSize=12;fontColor=#1D3557;strokeColor=#457B9D;labelBackgroundColor=#F1FAEE;" parent="1" source="16" target="25" edge="1">
                    <mxGeometry relative="1" as="geometry"/>
                </mxCell>
                <mxCell id="16" value="&lt;span style=&quot;color: rgb(18 , 18 , 18) ; font-size: 12px ; text-align: left ; background-color: rgb(255 , 255 , 255)&quot;&gt;WriterPerThread&lt;/span&gt;" style="rounded=0;whiteSpace=wrap;html=1;shadow=0;fontSize=15;fontColor=#1D3557;strokeColor=#457B9D;fillColor=none;" parent="1" vertex="1">
                    <mxGeometry x="470" y="320" width="110" height="50" as="geometry"/>
                </mxCell>
                <mxCell id="28" style="edgeStyle=orthogonalEdgeStyle;rounded=0;orthogonalLoop=1;jettySize=auto;html=1;entryX=0.5;entryY=0;entryDx=0;entryDy=0;fontSize=12;fontColor=#1D3557;strokeColor=#457B9D;labelBackgroundColor=#F1FAEE;" parent="1" source="17" target="24" edge="1">
                    <mxGeometry relative="1" as="geometry"/>
                </mxCell>
                <mxCell id="17" value="&lt;span style=&quot;color: rgb(18 , 18 , 18) ; font-size: 12px ; text-align: left ; background-color: rgb(255 , 255 , 255)&quot;&gt;WriterPerThread&lt;/span&gt;" style="rounded=0;whiteSpace=wrap;html=1;shadow=0;fontSize=15;fontColor=#1D3557;strokeColor=#457B9D;fillColor=none;" parent="1" vertex="1">
                    <mxGeometry x="600" y="320" width="110" height="50" as="geometry"/>
                </mxCell>
                <mxCell id="23" value="&lt;span style=&quot;color: rgb(18, 18, 18); font-size: 12px; background-color: rgb(255, 255, 255);&quot;&gt;segment&lt;/span&gt;" style="rounded=0;whiteSpace=wrap;html=1;shadow=0;fontSize=12;fontColor=#1D3557;strokeColor=#457B9D;fillColor=none;" parent="1" vertex="1">
                    <mxGeometry x="340" y="400" width="100" height="50" as="geometry"/>
                </mxCell>
                <mxCell id="24" value="&lt;span style=&quot;color: rgb(18, 18, 18); font-size: 12px; background-color: rgb(255, 255, 255);&quot;&gt;segment&lt;/span&gt;" style="rounded=0;whiteSpace=wrap;html=1;shadow=0;fontSize=12;fontColor=#1D3557;strokeColor=#457B9D;fillColor=none;" parent="1" vertex="1">
                    <mxGeometry x="605" y="400" width="100" height="50" as="geometry"/>
                </mxCell>
                <mxCell id="25" value="&lt;span style=&quot;color: rgb(18, 18, 18); font-size: 12px; background-color: rgb(255, 255, 255);&quot;&gt;segment&lt;/span&gt;" style="rounded=0;whiteSpace=wrap;html=1;shadow=0;fontSize=12;fontColor=#1D3557;strokeColor=#457B9D;fillColor=none;" parent="1" vertex="1">
                    <mxGeometry x="475" y="400" width="100" height="50" as="geometry"/>
                </mxCell>
                <mxCell id="31" style="rounded=0;orthogonalLoop=1;jettySize=auto;html=1;fontSize=12;fontColor=#1D3557;strokeColor=#457B9D;dashed=1;labelBackgroundColor=#F1FAEE;" parent="1" source="29" target="30" edge="1">
                    <mxGeometry relative="1" as="geometry"/>
                </mxCell>
                <mxCell id="29" value="merge任务" style="ellipse;whiteSpace=wrap;html=1;shadow=0;fontSize=12;fontColor=#1D3557;strokeColor=#457B9D;fillColor=none;" parent="1" vertex="1">
                    <mxGeometry x="680" y="220" width="70" height="40" as="geometry"/>
                </mxCell>
                <mxCell id="30" value="&lt;span style=&quot;color: rgb(18, 18, 18); font-size: 12px; background-color: rgb(255, 255, 255);&quot;&gt;segment&lt;/span&gt;" style="rounded=0;whiteSpace=wrap;html=1;shadow=0;fontSize=12;fontColor=#1D3557;strokeColor=#457B9D;fillColor=none;" parent="1" vertex="1">
                    <mxGeometry x="727" y="400" width="100" height="50" as="geometry"/>
                </mxCell>
            </root>
        </mxGraphModel>
    </diagram>
</mxfile>